<svg xmlns="http://www.w3.org/2000/svg" viewBox="0 0 220 200">
	<path fill="white" d="M173.62,82.57c-32.9-12.54-50.71-15-49.9-31.2.66-13.37,11.17-20.6,28.11-19.56,19,1.17,29.33,11.08,30.3,28.41h34.95c-.24-39.32-27.25-57.87-61.56-60-1-.06-1.88,0-2.82-.07l.13-.17H0v199.8H42V119.63H74.15C72.53,161.84,101.63,197,147,199.84c34.12,2.1,70.68-16.78,72.86-60.8C221.46,107.86,203,93.85,173.62,82.57Zm-22.45,81.14c-22.35-1.38-40.77-18.89-40.22-44.09H76.31V85.75H42v-50H91.38a59,59,0,0,0-3.09,16.29c-1.89,38,23.85,47.2,50.72,57.53,34,13.14,45.21,16.45,44.48,31.12C182.71,156.2,170.48,164.91,151.18,163.72Z"/>
</svg>