<?xml version="1.0" standalone="no"?>
<!DOCTYPE svg PUBLIC "-//W3C//DTD SVG 20010904//EN"
 "http://www.w3.org/TR/2001/REC-SVG-20010904/DTD/svg10.dtd">
<svg version="1.0" xmlns="http://www.w3.org/2000/svg"
 width="260.000000pt" height="260.000000pt" viewBox="0 0 260.000000 260.000000"
 preserveAspectRatio="xMidYMid meet">
<metadata>
Created by potrace 1.11, written by Peter Selinger 2001-2013
</metadata>
<g transform="translate(0.000000,260.000000) scale(0.100000,-0.100000)"
fill="#000000" stroke="none">
<path d="M0 1300 l0 -1300 1300 0 1300 0 0 1300 0 1300 -1300 0 -1300 0 0
-1300z m1962 513 c112 -53 180 -138 194 -242 l7 -51 -111 0 -110 0 -6 34 c-14
73 -89 126 -181 126 -101 0 -182 -65 -171 -139 9 -62 58 -94 231 -151 254 -83
345 -173 345 -340 0 -133 -63 -219 -198 -271 -81 -31 -245 -38 -341 -14 -68
16 -164 65 -207 106 -37 35 -75 117 -81 174 l-6 55 112 0 c108 0 111 -1 111
-22 1 -50 36 -104 81 -126 174 -83 360 13 293 153 -19 41 -78 74 -218 119
-252 83 -346 172 -346 326 0 113 56 197 170 255 74 38 113 44 245 42 112 -2
125 -4 187 -34z m-722 -63 l0 -90 -260 0 -260 0 0 -140 0 -140 225 0 225 0 0
-90 0 -90 -225 0 -225 0 0 -220 0 -220 -110 0 -110 0 0 540 0 540 370 0 370 0
0 -90z"/>
</g>
</svg>
