<svg xmlns="http://www.w3.org/2000/svg" width="30px" height="30px" viewBox="0 0 100 100">
		<g>
			<g>
				<path fill="#FFFFFF" d="M49.998,82.413c-18.436,0-33.432-14.997-33.432-33.434c0-18.436,14.996-33.434,33.432-33.434
					c18.438,0,33.436,14.998,33.436,33.434C83.434,67.416,68.437,82.413,49.998,82.413z M49.998,16.82
					c-17.731,0-32.159,14.427-32.159,32.16s14.428,32.156,32.159,32.156c17.734,0,32.16-14.424,32.16-32.156
					S67.732,16.82,49.998,16.82z"/>
			</g>
			<g>
				<g>
					<g>
						<polygon fill="#FFFFFF" points="37.141,45.222 25.452,41.602 24.818,27.316 26.092,27.256 26.687,40.649 36.907,43.817
							49.359,34.767 49.359,24.184 36.801,19.477 37.245,18.286 50.634,23.298 50.634,35.42 						"/>
					</g>
					<g>
						<polygon fill="#FFFFFF" points="64.526,69.989 57.313,59.884 62.472,44.012 74.152,40.392 83.057,51.569 82.06,52.362
							73.7,41.866 63.479,45.032 58.722,59.668 65.047,68.521 77.968,64.95 78.312,66.178 						"/>
					</g>
					<g>
						<polygon fill="#FFFFFF" points="62.857,45.222 49.359,35.42 49.359,23.298 62.749,18.286 63.194,19.477 50.634,24.184
							50.634,34.767 63.093,43.817 73.311,40.649 73.903,27.256 75.179,27.316 74.54,41.602 						"/>
					</g>
					<g>
						<polygon fill="#FFFFFF" points="35.47,69.989 21.686,66.178 22.023,64.95 34.95,68.521 41.272,59.668 36.518,45.032
							26.297,41.866 17.936,52.362 16.936,51.569 25.846,40.392 37.528,44.012 42.685,59.884 						"/>
					</g>
					<g>
						<polygon fill="#FFFFFF" points="57.68,81.166 56.616,80.464 64.012,69.269 57.688,60.413 42.307,60.413 35.982,69.269
							43.381,80.464 42.319,81.166 34.437,69.239 41.65,59.133 58.347,59.133 65.562,69.239 						"/>
					</g>
				</g>
				<g>
					<path fill="#FFFFFF" d="M58.48,60.413H41.517l-5.242-16.136l13.724-9.971l13.727,9.971L58.48,60.413z M42.441,59.133h15.114
						l4.669-14.367l-12.227-8.885l-12.227,8.885L42.441,59.133z"/>
				</g>
			</g>
		</g>
	</svg>
