<svg xmlns="http://www.w3.org/2000/svg" width="30px" height="30px" viewBox="0 0 100 100">
		<g>
			<g>
				<g>
					<path fill="#FFFFFF" d="M90.605,83.459c-0.528,0-0.958-0.431-0.958-0.957V25.174c0-3.451-2.806-6.258-6.254-6.258h-66.95
						c-3.445,0-6.251,2.807-6.251,6.258v57.328c0,0.526-0.429,0.957-0.957,0.957c-0.529,0-0.96-0.431-0.96-0.957V25.174
						c0-4.506,3.664-8.174,8.168-8.174h66.95c4.506,0,8.171,3.668,8.171,8.174v57.328C91.564,83.028,91.138,83.459,90.605,83.459z"
						/>
				</g>
				<g>
					<path fill="#FFFFFF" d="M98.994,83H0.848c-0.53,0-0.958-0.431-0.958-0.957c0-0.533,0.428-0.959,0.958-0.959h98.146
						c0.53,0,0.958,0.426,0.958,0.959C99.952,82.569,99.524,83,98.994,83z"/>
				</g>
				<g>
					<path fill="#FFFFFF" d="M79.41,28.479c-0.244,0-0.492-0.093-0.677-0.281c-0.378-0.373-0.378-0.98,0-1.356l7.847-7.846
						c0.373-0.375,0.98-0.375,1.355,0c0.374,0.375,0.374,0.982,0,1.356l-7.849,7.846C79.898,28.386,79.653,28.479,79.41,28.479z"/>
				</g>
				<g>
					<path fill="#FFFFFF" d="M19.401,28.479c-0.245,0-0.493-0.093-0.677-0.281l-7.851-7.846c-0.375-0.374-0.375-0.981,0-1.356
						c0.376-0.375,0.983-0.375,1.355,0l7.848,7.846c0.375,0.376,0.375,0.983,0,1.356C19.891,28.386,19.646,28.479,19.401,28.479z"/>
				</g>
				<g>
					<path fill="#FFFFFF" d="M79.41,28.479H19.401c-0.53,0-0.957-0.428-0.957-0.958c0-0.53,0.427-0.96,0.957-0.96H79.41
						c0.529,0,0.958,0.43,0.958,0.96C80.368,28.051,79.939,28.479,79.41,28.479z"/>
				</g>
				<g>
					<path fill="#FFFFFF" d="M19.401,83c-0.53,0-0.957-0.431-0.957-0.957V27.521c0-0.53,0.427-0.96,0.957-0.96
						s0.958,0.43,0.958,0.96v54.522C20.359,82.569,19.932,83,19.401,83z"/>
				</g>
				<g>
					<path fill="#FFFFFF" d="M79.403,83L79.403,83c-0.53,0-0.958-0.431-0.958-0.96l0.013-54.519c0-0.53,0.431-0.96,0.958-0.96l0,0
						c0.53,0,0.959,0.43,0.959,0.96l-0.014,54.522C80.361,82.569,79.932,83,79.403,83z"/>
				</g>
			</g>
			<g>
				<path fill="#FFFFFF" d="M59.974,69.306c-0.309,0-0.618-0.119-0.853-0.354L37.983,47.814c-0.47-0.471-0.47-1.232,0-1.703
					c0.468-0.471,1.234-0.471,1.703,0l21.138,21.137c0.471,0.472,0.471,1.234,0,1.704C60.589,69.187,60.279,69.306,59.974,69.306z"
					/>
			</g>
			<g>
				<path fill="#FFFFFF" d="M38.836,69.306c-0.309,0-0.616-0.119-0.853-0.354c-0.47-0.47-0.47-1.232,0-1.704l21.138-21.137
					c0.471-0.471,1.231-0.471,1.703,0c0.471,0.471,0.471,1.232,0,1.703L39.687,68.952C39.451,69.187,39.145,69.306,38.836,69.306z"
					/>
			</g>
		</g>
	</svg>
