<svg xmlns="http://www.w3.org/2000/svg" width="30px" height="30px" viewBox="0 0 100 100">
    <g>
        <g>
            <g>
                <path fill="#FFFFFF" d="M49.484,72.844c-9.118,0-16.537-7.422-16.537-16.537c0-9.124,7.419-16.542,16.537-16.542
						c9.12,0,16.537,7.418,16.537,16.542C66.021,65.422,58.604,72.844,49.484,72.844z M49.484,40.396
						c-8.77,0-15.906,7.133-15.906,15.911c0,8.77,7.137,15.904,15.906,15.904S65.39,65.076,65.39,56.307
						C65.39,47.529,58.254,40.396,49.484,40.396z"/>
            </g>
            <g>
                <g>
                    <g>
                        <polygon fill="#FFFFFF" points="43.123,54.447 37.342,52.654 37.027,45.588 37.658,45.557 37.952,52.182 43.006,53.75
								49.171,49.273 49.171,44.038 42.956,41.706 43.178,41.12 49.802,43.604 49.802,49.596 							"/>
                    </g>
                    <g>
                        <polygon fill="#FFFFFF" points="56.669,66.697 53.104,61.697 55.654,53.846 61.432,52.053 65.836,57.584 65.342,57.977
								61.208,52.785 56.151,54.35 53.8,61.592 56.926,65.969 63.321,64.203 63.488,64.811 							"/>
                    </g>
                    <g>
                        <polygon fill="#FFFFFF" points="55.846,54.447 49.171,49.596 49.171,43.604 55.791,41.12 56.011,41.706 49.802,44.038
								49.802,49.273 55.961,53.75 61.014,52.182 61.308,45.557 61.938,45.588 61.621,52.654 							"/>
                    </g>
                    <g>
                        <polygon fill="#FFFFFF" points="42.301,66.697 35.48,64.811 35.649,64.203 42.044,65.969 45.167,61.592 42.816,54.35
								37.763,52.785 33.624,57.977 33.133,57.584 37.538,52.053 43.315,53.846 45.868,61.697 							"/>
                    </g>
                    <g>
                        <polygon fill="#FFFFFF" points="53.281,72.225 52.758,71.877 56.419,66.342 53.289,61.957 45.68,61.957 42.552,66.342
								46.214,71.877 45.683,72.225 41.789,66.328 45.354,61.326 53.611,61.326 57.181,66.328 							"/>
                    </g>
                </g>
                <g>
                    <path fill="#FFFFFF" d="M53.678,61.957h-8.389l-2.592-7.98l6.787-4.93l6.789,4.93L53.678,61.957z M45.746,61.326h7.477
							l2.309-7.109l-6.047-4.392l-6.049,4.392L45.746,61.326z"/>
                </g>
            </g>
        </g>
        <g>
            <g>
                <path fill="#FFFFFF" d="M90.735,82.77c-0.53,0-0.959-0.434-0.959-0.961V25.41c0-3.451-2.811-6.261-6.262-6.261h-67.03
						c-3.453,0-6.261,2.81-6.261,6.261v56.398c0,0.527-0.429,0.961-0.959,0.961c-0.532,0-0.961-0.434-0.961-0.961V25.41
						c0-4.509,3.669-8.179,8.181-8.179h67.03c4.51,0,8.182,3.67,8.182,8.179v56.398C91.696,82.336,91.267,82.77,90.735,82.77z"/>
            </g>
            <g>
                <path fill="#FFFFFF" d="M99.13,82.77H0.87c-0.534,0-0.962-0.434-0.962-0.961c0-0.531,0.428-0.959,0.962-0.959h98.26
						c0.534,0,0.962,0.428,0.962,0.959C100.092,82.336,99.664,82.77,99.13,82.77z"/>
            </g>
            <g>
                <path fill="#FFFFFF" d="M79.526,29.183c-0.246,0-0.495-0.097-0.679-0.282c-0.376-0.374-0.376-0.983,0-1.356l7.854-7.858
						c0.373-0.375,0.985-0.375,1.358,0c0.376,0.373,0.376,0.983,0,1.355l-7.856,7.858C80.015,29.086,79.772,29.183,79.526,29.183z"
                />
            </g>
            <g>
                <path fill="#FFFFFF" d="M19.442,29.183c-0.245,0-0.488-0.097-0.677-0.282l-7.858-7.858c-0.374-0.373-0.374-0.982,0-1.355
						c0.377-0.375,0.982-0.375,1.354,0l7.86,7.858c0.375,0.373,0.375,0.982,0,1.356C19.933,29.086,19.688,29.183,19.442,29.183z"/>
            </g>
            <g>
                <path fill="#FFFFFF" d="M79.526,29.183H19.442c-0.53,0-0.958-0.431-0.958-0.961c0-0.53,0.428-0.958,0.958-0.958h60.084
						c0.53,0,0.96,0.428,0.96,0.958C80.486,28.752,80.057,29.183,79.526,29.183z"/>
            </g>
            <g>
                <path fill="#FFFFFF" d="M19.442,82.77c-0.53,0-0.958-0.434-0.958-0.961V28.222c0-0.53,0.428-0.958,0.958-0.958
						s0.962,0.428,0.962,0.958v53.587C20.404,82.336,19.973,82.77,19.442,82.77z"/>
            </g>
            <g>
                <path fill="#FFFFFF" d="M79.521,82.77L79.521,82.77c-0.534,0-0.962-0.434-0.962-0.961l0.016-53.587
						c0-0.53,0.429-0.958,0.958-0.958l0,0c0.528,0,0.961,0.428,0.961,0.958l-0.015,53.587C80.479,82.34,80.05,82.77,79.521,82.77z"
                />
            </g>
        </g>
    </g>
</svg>
