<svg xmlns="http://www.w3.org/2000/svg" width="30px" height="30px" viewBox="0 0 100 100">
    <g>
        <path fill="#FFFFFF" d="M65.528,82.736H34.47c-4.452,0-8.072-3.624-8.072-8.076V24.997c0-4.454,3.62-8.076,8.072-8.076h31.059
				c4.451,0,8.074,3.623,8.074,8.076V74.66C73.603,79.112,69.979,82.736,65.528,82.736z M34.47,18.429
				c-3.62,0-6.565,2.946-6.565,6.568V74.66c0,3.62,2.945,6.568,6.565,6.568h31.059c3.62,0,6.567-2.948,6.567-6.568V24.997
				c0-3.622-2.947-6.568-6.567-6.568H34.47z"/>
    </g>
</svg>
