<svg xmlns="http://www.w3.org/2000/svg" width="30px" height="30px" viewBox="0 0 100 100">
    <g>
        <g>
            <path fill="#FFFFFF" d="M55.653,82.57H29.989c-3.781,0-6.854-3.076-6.854-6.855V34.672c0-3.78,3.073-6.855,6.854-6.855h25.664
					c3.782,0,6.856,3.075,6.856,6.855v41.043C62.51,79.494,59.436,82.57,55.653,82.57z M29.989,29.427
					c-2.893,0-5.249,2.352-5.249,5.245v41.043c0,2.893,2.356,5.246,5.249,5.246h25.664c2.893,0,5.249-2.354,5.249-5.246V34.672
					c0-2.893-2.356-5.245-5.249-5.245H29.989z"/>
        </g>
        <g>
            <path fill="#FFFFFF" d="M67.844,16.897H42.177c-3.781,0-6.855,3.074-6.855,6.857v5.367c0.152-0.009,0.3-0.024,0.454-0.024
					c0.405,0,0.783,0.034,1.153,0.084v-5.427c0-2.895,2.356-5.248,5.248-5.248h25.667c2.891,0,5.246,2.354,5.246,5.248v41.04
					c0,2.894-2.355,5.249-5.246,5.249h-7.06c0.024,0.536,0.002,1.075-0.071,1.607h7.131c3.779,0,6.854-3.075,6.854-6.856v-41.04
					C74.698,19.972,71.623,16.897,67.844,16.897z"/>
        </g>
    </g>
</svg>
