<svg xmlns="http://www.w3.org/2000/svg" width="30px" height="30px" viewBox="0 0 100 100">
    <g>
        <g>
            <path fill="#FFFFFF" d="M66.081,82.331H33.919c-4.616,0-8.372-3.757-8.372-8.371V52.537l-2.025,1.899
					c-0.31,0.289-0.792,0.282-1.089-0.017L8.443,40.434c-0.304-0.305-0.304-0.8,0-1.107l18.982-18.98
					c1.598-1.965,3.966-3.091,6.493-3.091h32.162c2.531,0,4.894,1.126,6.493,3.091l18.982,18.98c0.305,0.307,0.305,0.802,0,1.107
					L77.57,54.42c-0.299,0.299-0.78,0.306-1.088,0.017l-2.028-1.899V73.96C74.454,78.574,70.7,82.331,66.081,82.331z M26.328,49.95
					c0.104,0,0.212,0.022,0.311,0.065c0.285,0.124,0.473,0.406,0.473,0.717V73.96c0,3.755,3.053,6.809,6.808,6.809h32.162
					c3.756,0,6.813-3.054,6.813-6.809V50.732c0-0.311,0.183-0.593,0.47-0.717c0.284-0.125,0.619-0.066,0.847,0.146L77,52.779
					l12.898-12.898L71.439,21.424c-0.021-0.021-0.036-0.041-0.053-0.063c-1.305-1.615-3.235-2.542-5.306-2.542H33.919
					c-2.067,0-4.001,0.928-5.303,2.542c-0.016,0.022-0.036,0.042-0.055,0.063L10.104,39.881l12.899,12.898l2.788-2.619
					C25.941,50.024,26.132,49.95,26.328,49.95z"/>
        </g>
        <g>
            <path fill="#FFFFFF" d="M62.896,17.972c0,0.021,0.004,0.043,0.004,0.064c0,7.112-5.786,12.899-12.898,12.899
					c-7.113,0-12.896-5.787-12.896-12.899c0-0.021,0-0.043,0-0.064h-1.563c0,0.021-0.003,0.043-0.003,0.064
					c0,7.974,6.488,14.461,14.463,14.461s14.461-6.488,14.461-14.461c0-0.021,0-0.043,0-0.064H62.896z"/>
        </g>
        <g>
            <g>
                <g>
                    <polygon fill="#FFFFFF" points="41.877,43.42 48.675,49.251 48.675,51.315 42.771,45.999 42.771,64.259 40.986,64.259
							40.986,45.999 34.592,51.315 34.592,49.251 						"/>
                </g>
            </g>
            <g>
                <g>
                    <polygon fill="#FFFFFF" points="58.176,64.259 51.383,58.426 51.383,56.364 57.281,61.679 57.281,43.419 59.067,43.419
							59.067,61.679 65.461,56.364 65.461,58.426 						"/>
                </g>
            </g>
        </g>
    </g>
</svg>
